<svg xmlns="http://www.w3.org/2000/svg" width="192" height="192" viewBox="0 0 192 192">
  <defs>
    <linearGradient id="bg" x1="0%" y1="0%" x2="100%" y2="100%">
      <stop offset="0%" style="stop-color:#0f0c29"/>
      <stop offset="50%" style="stop-color:#302b63"/>
      <stop offset="100%" style="stop-color:#24243e"/>
    </linearGradient>
    <linearGradient id="sun" x1="0%" y1="0%" x2="100%" y2="100%">
      <stop offset="0%" style="stop-color:#fef08a"/>
      <stop offset="100%" style="stop-color:#f59e0b"/>
    </linearGradient>
  </defs>
  <rect width="192" height="192" rx="32" fill="url(#bg)"/>
  <circle cx="120" cy="80" r="28" fill="url(#sun)" opacity="0.95"/>
  <g stroke="#fbbf24" stroke-width="3" stroke-linecap="round" opacity="0.7">
    <line x1="120" y1="38" x2="120" y2="44"/>
    <line x1="120" y1="116" x2="120" y2="122"/>
    <line x1="78" y1="80" x2="84" y2="80"/>
    <line x1="156" y1="80" x2="162" y2="80"/>
    <line x1="90" y1="50" x2="94" y2="54"/>
    <line x1="146" y1="106" x2="150" y2="110"/>
    <line x1="90" y1="110" x2="94" y2="106"/>
    <line x1="146" y1="54" x2="150" y2="50"/>
  </g>
  <g opacity="0.85">
    <ellipse cx="90" cy="120" rx="45" ry="28" fill="#c4d4e8"/>
    <ellipse cx="76" cy="110" rx="30" ry="22" fill="#dce6f0"/>
    <ellipse cx="106" cy="112" rx="32" ry="24" fill="#d0dce8"/>
  </g>
</svg>
